#!OML:ASF F:\VICON\USERDATA\INSTALL\rory3\rory3.ASF
:FULLY-SPECIFIED
:DEGREES
1667
root -0.353553 15.5947 -0.611751 -8.61725 -2.95594 -2.81431
lowerback 7.50435 -1.69833 -15.8081
upperback -2.9775 -4.7803 -12.0161
thorax -7.39531 -1.94425 -3.59419
lowerneck -4.82841 -12.3446 -18.7511
upperneck -0.914375 -15.6062 11.3648
head 2.83138 -7.58271 5.46322
rclavicle 0 -4.13472e-014
rhumerus 8.17599 -5.27411 -69.1597
rradius 92.0587
rwrist 18.2853
rhand 26.4977 7.81482
rfingers 7.12502
rthumb 50.5326 -13.1237
lclavicle 0 -4.13472e-014
lhumerus 5.01825 -1.34684 58.3871
lradius 109.372
lwrist 4.9588
lhand 8.10555 30.5479
lfingers 7.12502
lthumb 33.3274 57.4785
rfemur -2.81597 5.07227 22.8253
rtibia 32.6304
rfoot -16.8554 -9.05726
rtoes -11.5501
lfemur -0.746305 -4.23985 -12.38
ltibia 30.4814
lfoot -17.0547 8.17679
ltoes -15.2157
1668
root -0.348701 15.5937 -0.601091 -8.73245 -3.04608 -2.92362
lowerback 7.35428 -1.79882 -15.6933
upperback -3.06994 -4.88353 -12.0208
thorax -7.41398 -1.99782 -3.65298
lowerneck -4.90769 -12.437 -18.4978
upperneck -1.36399 -15.7088 11.3855
head 2.70614 -7.62104 5.43297
rclavicle -5.40694e-014 -9.54166e-014
rhumerus 8.40316 -5.22487 -69.0002
rradius 91.9645
rwrist 18.4538
rhand 26.5524 7.88574
rfingers 7.12502
rthumb 50.5825 -13.0257
lclavicle -5.40694e-014 -9.54166e-014
lhumerus 5.22579 -1.61556 58.4227
lradius 109.267
lwrist 4.62856
lhand 7.93044 30.3586
lfingers 7.12502
lthumb 33.1609 57.3247
rfemur -2.48741 5.12443 22.9376
rtibia 32.3431
rfoot -16.8382 -8.97675
rtoes -10.8111
lfemur -0.50164 -4.29613 -12.3069
ltibia 30.427
lfoot -17.1711 8.30642
ltoes -14.9239
1669
root -0.345776 15.5958 -0.591619 -8.8549 -3.12843 -3.02719
lowerback 7.33885 -1.88182 -15.6232
upperback -3.26787 -5.02063 -11.9782
thorax -7.6225 -2.05213 -3.63095
lowerneck -4.90419 -12.4929 -18.387
upperneck -1.63226 -15.775 11.3523
head 2.62272 -7.64783 5.40962
rclavicle 6.83819e-014 -9.54166e-014
rhumerus 8.45028 -5.03195 -68.7271
rradius 91.9134
rwrist 18.5025
rhand 26.6125 7.90618
rfingers 7.12502
rthumb 50.6373 -12.9754
lclavicle 6.83819e-014 -9.54166e-014
lhumerus 5.29189 -1.98374 58.5513
lradius 109.176
lwrist 4.45065
lhand 8.04404 30.28
lfingers 7.12502
lthumb 33.2689 57.2231
rfemur -2.14741 5.16128 23.0572
rtibia 32.0489
rfoot -16.7735 -8.98554
rtoes -10.9506
lfemur -0.26284 -4.33064 -12.2304
ltibia 30.3679
lfoot -17.2068 8.4026
ltoes -14.9387
1670
root -0.344191 15.5992 -0.584171 -8.95271 -3.20219 -3.17365
lowerback 7.34113 -1.94999 -15.5645
upperback -3.52443 -5.15366 -11.9129
thorax -7.90553 -2.09805 -3.57932
lowerneck -4.6349 -12.5205 -18.4326
upperneck -1.9337 -15.8479 11.4467
head 2.51244 -7.68399 5.46245
rclavicle 1.59028e-014 1.01778e-013
rhumerus 8.29503 -4.74422 -68.362
rradius 91.9718
rwrist 18.3696
rhand 26.6246 7.68846
rfingers 7.12502
rthumb 50.6484 -13.1871
lclavicle 1.59028e-014 1.01778e-013
lhumerus 5.25885 -2.43491 58.6164
lradius 109.161
lwrist 4.58786
lhand 8.24102 30.294
lfingers 7.12502
lthumb 33.4562 57.1969
rfemur -1.84167 5.25464 23.2433
rtibia 31.7752
rfoot -16.7398 -9.00714
rtoes -10.7536
lfemur -0.0378961 -4.29648 -12.0741
ltibia 30.2559
lfoot -17.198 8.39557
ltoes -14.984
1671
root -0.342334 15.6029 -0.574211 -9.04447 -3.27178 -3.33001
lowerback 7.21203 -2.03272 -15.5114
upperback -3.69728 -5.25492 -11.8424
thorax -8.01588 -2.13826 -3.52428
lowerneck -4.4698 -12.5838 -18.5943
upperneck -2.22182 -15.9486 11.6772
head 2.44815 -7.72928 5.56167
rclavicle -3.18055e-015 -4.77083e-014
rhumerus 8.17814 -4.48068 -67.9608
rradius 92.0657
rwrist 18.0948
rhand 26.6003 7.52836
rfingers 7.12502
rthumb 50.6262 -13.3593
lclavicle -3.18055e-015 -4.77083e-014
lhumerus 5.32727 -2.80367 58.6374
lradius 109.129
lwrist 4.86443
lhand 8.23489 30.1959
lfingers 7.12502
lthumb 33.4503 57.1
rfemur -1.55271 5.29075 23.4471
rtibia 31.5202
rfoot -16.583 -9.21657
rtoes -11.4018
lfemur 0.219855 -4.26982 -11.9057
ltibia 30.1102
lfoot -17.2231 8.38287
ltoes -15.0967
1672
root -0.339613 15.6078 -0.563103 -9.12277 -3.32886 -3.32589
lowerback 6.951 -2.1273 -15.5784
upperback -3.76847 -5.33477 -11.8356
thorax -7.93294 -2.17606 -3.48235
lowerneck -4.58741 -12.7092 -18.6293
upperneck -2.4302 -16.0848 11.7912
head 2.43661 -7.78605 5.5847
rclavicle -3.18055e-014 1.90833e-014
rhumerus 8.19199 -4.3178 -67.6697
rradius 92.1753
rwrist 17.8227
rhand 26.5169 7.50478
rfingers 7.12502
rthumb 50.5501 -13.4243
lclavicle -3.18055e-014 1.90833e-014
lhumerus 5.60506 -3.05081 58.6494
lradius 109.033
lwrist 5.15418
lhand 8.12896 30.1231
lfingers 7.12502
lthumb 33.3496 57.0489
rfemur -1.30193 5.30746 23.4556
rtibia 31.2842
rfoot -16.5 -9.31346
rtoes -11.8071
lfemur 0.443131 -4.26203 -11.9365
ltibia 29.9717
lfoot -17.2567 8.45499
ltoes -15.5166
1673
root -0.337064 15.6105 -0.553484 -9.18391 -3.39888 -3.32207
lowerback 6.69298 -2.20501 -15.6352
upperback -3.85562 -5.39616 -11.84
thorax -7.87291 -2.20467 -3.46162
lowerneck -4.65373 -12.817 -18.6437
upperneck -2.64761 -16.2078 11.9035
head 2.41103 -7.83816 5.6093
rclavicle -2.8625e-014 1.74931e-013
rhumerus 8.22941 -4.21112 -67.4771
rradius 92.203
rwrist 17.5998
rhand 26.4143 7.7026
rfingers 7.12502
rthumb 50.4564 -13.2772
lclavicle -2.8625e-014 1.74931e-013
lhumerus 5.87315 -3.31182 58.6815
lradius 108.935
lwrist 5.60281
lhand 7.76101 29.8418
lfingers 7.12502
lthumb 32.9998 56.842
rfemur -1.09654 5.42746 23.4624
rtibia 31.0832
rfoot -16.5488 -9.25629
rtoes -11.1294
lfemur 0.634878 -4.24851 -11.9562
ltibia 29.8376
lfoot -17.2804 8.46613
ltoes -15.2648
1674
root -0.334231 15.611 -0.546038 -9.22708 -3.43748 -3.44257
lowerback 6.52329 -2.28624 -15.5796
upperback -4.00049 -5.48357 -11.8202
thorax -7.93425 -2.24353 -3.46821
lowerneck -4.57684 -12.8849 -18.7011
upperneck -2.81287 -16.3101 12.1095
head 2.38879 -7.8857 5.67698
rclavicle 2.22639e-014 -4.13472e-014
rhumerus 8.26353 -4.12885 -67.3091
rradius 92.1769
rwrist 17.4396
rhand 26.5833 7.83604
rfingers 7.12502
rthumb 50.6107 -13.0601
lclavicle 2.22639e-014 -4.13472e-014
lhumerus 6.03945 -3.59921 58.7155
lradius 108.866
lwrist 6.01063
lhand 7.69959 29.555
lfingers 7.12502
lthumb 32.9414 56.5675
rfemur -0.907909 5.53955 23.6084
rtibia 30.8881
rfoot -16.5508 -9.25842
rtoes -10.0901
lfemur 0.773887 -4.24499 -11.8305
ltibia 29.7552
lfoot -17.2923 8.43778
ltoes -15.0223
1675
root -0.332273 15.612 -0.53984 -9.29604 -3.41061 -3.44423
lowerback 6.44596 -2.32328 -15.7266
upperback -4.23051 -5.57285 -11.807
thorax -8.13527 -2.26316 -3.37623
lowerneck -4.16862 -12.9644 -18.8907
upperneck -2.91789 -16.4879 12.318
head 2.35456 -7.98163 5.7736
rclavicle 7.95139e-015 2.54444e-014
rhumerus 8.10702 -4.05548 -66.9518
rradius 92.2292
rwrist 17.2039
rhand 26.8558 7.75009
rfingers 7.12502
rthumb 50.8593 -13.0095
lclavicle 7.95139e-015 2.54444e-014
lhumerus 6.09446 -3.96163 58.8267
lradius 108.862
lwrist 6.3369
lhand 7.98078 29.567
lfingers 7.12502
lthumb 33.2088 56.5229
rfemur -0.708403 5.5694 23.6223
rtibia 30.7011
rfoot -16.5382 -9.3382
rtoes -10.0475
lfemur 0.892188 -4.29338 -11.8518
ltibia 29.7318
lfoot -17.3271 8.44458
ltoes -15.0103
1676
root -0.329047 15.61 -0.531121 -9.36452 -3.39334 -3.52021
lowerback 6.2915 -2.32371 -15.7617
upperback -4.43455 -5.57897 -11.8033
thorax -8.27403 -2.25307 -3.3653
lowerneck -3.719 -13.0718 -19.1632
upperneck -2.90079 -16.7149 12.507
head 2.36268 -8.1053 5.86835
rclavicle -3.33958e-014 -1.11319e-013
rhumerus 7.81264 -4.16726 -66.5685
rradius 92.2832
rwrist 17.1021
rhand 26.8938 7.83524
rfingers 7.12502
rthumb 50.894 -12.9052
lclavicle -3.33958e-014 -1.11319e-013
lhumerus 6.22525 -4.40397 58.9618
lradius 108.848
lwrist 6.7042
lhand 8.03508 29.6317
lfingers 7.12502
lthumb 33.2604 56.5766
rfemur -0.483501 5.625 23.7039
rtibia 30.536
rfoot -16.622 -9.28862
rtoes -9.74432
lfemur 0.999876 -4.34091 -11.7992
ltibia 29.7421
lfoot -17.3621 8.46277
ltoes -15.219
